P3
5 4
255
1 2 3 255 255 255 4 5 6 255 255 255 7 8 9
9 8 7 255 255 255 6 5 4 255 255 255 3 2 1
1 2 3 255 255 255 4 5 6 255 255 255 7 8 9
42 42 42 42 42 42 42 42 42 42 42 42 42 42 42